<svg width="1200" height="750" viewBox="0 0 1200 750" fill="none" xmlns="http://www.w3.org/2000/svg">
  <defs>
    <linearGradient id="g1" x1="0" y1="0" x2="1" y2="1">
      <stop offset="0%" stop-color="#5B2C6F"></stop>
      <stop offset="100%" stop-color="#7ED957"></stop>
    </linearGradient>
    <filter id="soft" x="-20%" y="-20%" width="140%" height="140%">
      <feGaussianBlur in="SourceAlpha" stdDeviation="8"></feGaussianBlur>
      <feOffset dx="0" dy="4"></feOffset>
      <feComponentTransfer><feFuncA type="linear" slope="0.15"></feFuncA></feComponentTransfer>
      <feMerge><feMergeNode></feMergeNode><feMergeNode in="SourceGraphic"></feMergeNode></feMerge>
    </filter>
  </defs>

  <!-- fundo -->
  <rect width="1200" height="750" rx="28" fill="#ffffff"></rect>
  <rect x="16" y="16" width="1168" height="718" rx="24" fill="#ffffff" stroke="#ECECEC"></rect>

  <!-- topbar -->
  <rect x="36" y="36" width="1128" height="60" rx="14" fill="#FAFAFA" stroke="#EEE"></rect>
  <circle cx="66" cy="66" r="10" fill="#5B2C6F"></circle>
  <circle cx="94" cy="66" r="10" fill="#7ED957"></circle>
  <rect x="120" y="52" width="180" height="28" rx="8" fill="#5B2C6F" fill-opacity="0.12"></rect>
  <rect x="960" y="52" width="180" height="28" rx="8" fill="#7ED957" fill-opacity="0.18"></rect>

  <!-- sidebar -->
  <rect x="36" y="112" width="220" height="602" rx="16" fill="#FAFAFA" stroke="#EEE"></rect>
  <rect x="56" y="132" width="180" height="42" rx="10" fill="url(#g1)" fill-opacity="0.12"></rect>
  <rect x="56" y="184" width="140" height="14" rx="7" fill="#C0C0C0" fill-opacity="0.65"></rect>
  <rect x="56" y="210" width="160" height="14" rx="7" fill="#C0C0C0" fill-opacity="0.55"></rect>
  <rect x="56" y="236" width="110" height="14" rx="7" fill="#C0C0C0" fill-opacity="0.45"></rect>
  <rect x="56" y="274" width="160" height="14" rx="7" fill="#C0C0C0" fill-opacity="0.55"></rect>
  <rect x="56" y="300" width="120" height="14" rx="7" fill="#C0C0C0" fill-opacity="0.45"></rect>
  <rect x="56" y="338" width="150" height="14" rx="7" fill="#C0C0C0" fill-opacity="0.55"></rect>

  <!-- header seção -->
  <rect x="276" y="112" width="888" height="70" rx="16" fill="#FAFAFA" stroke="#EEE"></rect>
  <rect x="296" y="132" width="220" height="30" rx="8" fill="#5B2C6F" fill-opacity="0.12"></rect>
  <rect x="1030" y="128" width="114" height="36" rx="10" fill="#7ED957" fill-opacity="0.25"></rect>

  <!-- cards topo -->
  <g filter="url(#soft)">
    <rect x="276" y="202" width="276" height="130" rx="16" fill="#fff" stroke="#EEE"></rect>
    <rect x="304" y="226" width="150" height="16" rx="8" fill="#C0C0C0" fill-opacity="0.6"></rect>
    <rect x="304" y="252" width="200" height="12" rx="6" fill="#C0C0C0" fill-opacity="0.35"></rect>
    <rect x="304" y="276" width="180" height="8" rx="4" fill="#7ED957" fill-opacity="0.7"></rect>
  </g>
  <g filter="url(#soft)">
    <rect x="572" y="202" width="276" height="130" rx="16" fill="#fff" stroke="#EEE"></rect>
    <rect x="600" y="226" width="130" height="16" rx="8" fill="#C0C0C0" fill-opacity="0.6"></rect>
    <rect x="600" y="252" width="200" height="12" rx="6" fill="#C0C0C0" fill-opacity="0.35"></rect>
    <rect x="600" y="276" width="190" height="8" rx="4" fill="#5B2C6F" fill-opacity="0.7"></rect>
  </g>
  <g filter="url(#soft)">
    <rect x="868" y="202" width="296" height="130" rx="16" fill="#fff" stroke="#EEE"></rect>
    <rect x="896" y="226" width="160" height="16" rx="8" fill="#C0C0C0" fill-opacity="0.6"></rect>
    <rect x="896" y="252" width="220" height="12" rx="6" fill="#C0C0C0" fill-opacity="0.35"></rect>
    <rect x="896" y="276" width="210" height="8" rx="4" fill="url(#g1)" fill-opacity="0.6"></rect>
  </g>

  <!-- gráfico linha -->
  <g filter="url(#soft)">
    <rect x="276" y="352" width="584" height="180" rx="16" fill="#fff" stroke="#EEE"></rect>
    <rect x="304" y="374" width="180" height="14" rx="7" fill="#C0C0C0" fill-opacity="0.55"></rect>
    <polyline points="306,500 360,460 420,470 480,430 540,440 600,400 660,420 720,380 840,410" fill="none" stroke="#5B2C6F" stroke-width="3"></polyline>
    <polyline points="306,520 360,490 420,485 480,470 540,450 600,455 660,440 720,430 840,420" fill="none" stroke="#7ED957" stroke-width="3" opacity="0.85"></polyline>
  </g>

  <!-- gráfico barras -->
  <g filter="url(#soft)">
    <rect x="880" y="352" width="284" height="180" rx="16" fill="#fff" stroke="#EEE"></rect>
    <rect x="906" y="374" width="160" height="14" rx="7" fill="#C0C0C0" fill-opacity="0.55"></rect>
    <rect x="930" y="520" width="18" height="60" rx="6" fill="#5B2C6F" opacity="0.8"></rect>
    <rect x="960" y="500" width="18" height="80" rx="6" fill="#7ED957" opacity="0.9"></rect>
    <rect x="990" y="470" width="18" height="110" rx="6" fill="#5B2C6F" opacity="0.8"></rect>
    <rect x="1020" y="485" width="18" height="95" rx="6" fill="#7ED957" opacity="0.9"></rect>
    <rect x="1050" y="510" width="18" height="70" rx="6" fill="#5B2C6F" opacity="0.8"></rect>
  </g>

  <!-- tabela -->
  <g filter="url(#soft)">
    <rect x="276" y="548" width="888" height="166" rx="16" fill="#fff" stroke="#EEE"></rect>
    <rect x="296" y="566" width="140" height="12" rx="6" fill="#C0C0C0" fill-opacity="0.55"></rect>
    <rect x="456" y="566" width="120" height="12" rx="6" fill="#C0C0C0" fill-opacity="0.45"></rect>
    <rect x="596" y="566" width="100" height="12" rx="6" fill="#C0C0C0" fill-opacity="0.45"></rect>
    <rect x="716" y="566" width="90" height="12" rx="6" fill="#C0C0C0" fill-opacity="0.45"></rect>
    <rect x="296" y="596" width="840" height="1" fill="#EEE"></rect>
    <rect x="296" y="610" width="180" height="10" rx="5" fill="#C0C0C0" fill-opacity="0.4"></rect>
    <rect x="516" y="610" width="120" height="10" rx="5" fill="#C0C0C0" fill-opacity="0.35"></rect>
    <rect x="676" y="610" width="100" height="10" rx="5" fill="#C0C0C0" fill-opacity="0.35"></rect>
    <rect x="796" y="610" width="110" height="10" rx="5" fill="#7ED957" fill-opacity="0.6"></rect>
  </g>
</svg>
